<?xml version="1.0" standalone="no"?>
<!DOCTYPE svg PUBLIC "-//W3C//DTD SVG 20010904//EN"
 "http://www.w3.org/TR/2001/REC-SVG-20010904/DTD/svg10.dtd">
<svg version="1.0" xmlns="http://www.w3.org/2000/svg"
 width="260.000000pt" height="260.000000pt" viewBox="0 0 260.000000 260.000000"
 preserveAspectRatio="xMidYMid meet">
<metadata>
Created by potrace 1.14, written by Peter Selinger 2001-2017
</metadata>
<g transform="translate(0.000000,260.000000) scale(0.100000,-0.100000)"
fill="#000000" stroke="none">
<path d="M1214 2501 c-18 -10 -33 -24 -35 -30 -2 -6 -15 -13 -27 -16 -46 -9
-60 -16 -77 -42 -16 -24 -16 -36 -1 -106 4 -18 3 -26 -3 -22 -6 3 -3 -9 6 -27
9 -18 20 -41 26 -52 5 -12 5 -22 -2 -29 -6 -6 -11 -16 -11 -22 0 -5 5 -2 10 7
9 14 15 15 41 6 19 -7 28 -15 25 -24 -8 -20 4 -17 20 3 18 25 28 9 26 -37 -2
-22 1 -40 7 -40 5 0 12 -7 15 -16 5 -14 4 -15 -8 -5 -13 11 -15 9 -11 -7 2
-11 -5 -28 -16 -38 -24 -21 -25 -41 -1 -23 15 11 15 11 4 -1 -7 -8 -17 -15
-22 -15 -4 0 -19 -11 -32 -25 -19 -21 -34 -26 -88 -28 -217 -11 -230 -17 -332
-168 -16 -25 -58 -68 -91 -96 -54 -45 -137 -136 -137 -151 0 -3 -14 -27 -32
-53 -17 -25 -32 -56 -34 -68 -1 -11 -6 -35 -9 -51 -5 -24 -2 -35 15 -50 12
-11 23 -18 24 -15 1 4 97 -58 106 -70 3 -4 13 -9 22 -13 29 -10 21 -24 -16
-30 -81 -13 -136 -64 -136 -125 0 -13 -11 -25 -28 -33 -57 -25 -67 -52 -65
-179 1 -63 4 -134 6 -157 4 -29 1 -46 -9 -54 -26 -21 -114 -180 -114 -205 0
-28 30 -94 42 -94 5 0 6 4 3 10 -3 5 -2 10 3 10 14 0 21 -60 11 -90 -4 -14
-10 -40 -13 -58 -4 -29 0 -36 26 -52 41 -25 135 -39 238 -37 79 2 85 3 82 22
-2 11 -3 34 -3 52 0 19 -9 44 -22 60 -36 43 -51 91 -54 168 -1 38 -6 99 -11
135 -7 51 -6 70 6 88 l14 22 40 -36 c23 -20 61 -45 86 -57 45 -19 67 -21 207
-17 31 1 73 -7 110 -20 184 -69 184 -69 298 -66 76 2 105 0 98 -7 -17 -17 -13
-59 8 -92 10 -18 44 -45 79 -63 36 -19 79 -53 101 -80 22 -26 54 -52 70 -59
44 -16 190 -14 223 3 25 13 26 17 17 41 -14 39 -28 52 -66 68 -18 8 -36 21
-39 30 -3 8 -13 15 -21 15 -8 0 -11 5 -8 10 3 6 2 10 -2 10 -5 0 -9 17 -10 37
-1 21 -3 49 -5 63 -3 28 -9 25 177 75 106 28 149 47 230 101 93 62 121 145 83
247 -26 69 -49 90 -131 119 -62 22 -66 25 -54 42 13 18 15 18 53 -2 21 -10 46
-18 54 -17 50 8 127 27 136 33 6 4 30 36 53 72 50 75 50 90 -1 196 -31 64 -37
71 -95 101 -68 34 -73 34 -199 -3 -45 -13 -56 -21 -83 -65 -38 -62 -44 -92
-26 -134 12 -31 12 -34 -8 -39 -12 -3 -35 -17 -51 -31 -16 -14 -31 -25 -34
-25 -3 0 -29 11 -57 26 -40 19 -56 34 -68 62 -9 20 -15 44 -15 52 0 8 -11 49
-25 90 -15 46 -26 103 -28 145 -3 79 -34 175 -67 210 -13 13 -36 30 -52 37
-17 7 -30 15 -30 18 0 9 20 35 20 26 0 -4 12 6 27 23 15 17 35 31 45 31 19 0
21 10 18 74 -1 32 1 38 14 33 9 -4 15 -3 15 1 -4 24 3 33 24 30 14 -2 22 2 23
12 3 49 18 109 26 104 5 -3 7 -12 4 -20 -3 -8 1 -17 9 -20 11 -5 12 -11 4 -25
-6 -12 -15 -17 -22 -12 -8 5 -8 2 1 -9 10 -13 10 -17 -4 -22 -9 -3 -14 -13
-11 -21 4 -9 1 -12 -7 -9 -7 3 -19 -3 -27 -13 -13 -16 -12 -17 3 -4 17 12 17
11 12 -17 -6 -30 20 -92 39 -92 4 0 5 -4 2 -10 -3 -5 -1 -10 4 -10 14 0 9 34
-8 54 -7 9 -10 16 -5 16 4 0 3 5 -4 12 -7 7 -12 17 -12 23 1 14 60 78 67 72 2
-3 -9 -18 -26 -33 -43 -38 -39 -51 4 -17 19 15 35 36 35 46 0 10 3 16 8 13 4
-2 8 24 8 60 0 35 -3 64 -8 64 -4 0 -8 5 -8 12 0 6 -10 25 -23 42 -13 17 -28
55 -35 84 -13 57 -53 118 -86 133 -12 5 -41 22 -66 38 -25 16 -53 30 -62 30
-9 1 -19 10 -23 20 -9 30 -45 72 -56 65 -5 -3 1 -15 13 -26 l23 -20 -28 17
c-16 9 -35 14 -43 11 -8 -3 -14 -1 -14 5 0 6 -4 8 -9 5 -5 -4 -11 -2 -13 4 -2
6 -26 13 -53 16 -39 4 -57 1 -81 -15z m-120 -92 c-10 -12 -18 -24 -17 -28 1
-3 0 -8 -2 -9 -2 -2 -3 3 -1 11 2 16 25 47 34 47 3 0 -3 -9 -14 -21z m491 -49
c3 -5 2 -10 -4 -10 -5 0 -13 5 -16 10 -3 6 -2 10 4 10 5 0 13 -4 16 -10z m195
-320 c0 -5 -2 -10 -4 -10 -3 0 -8 5 -11 10 -3 6 -1 10 4 10 6 0 11 -4 11 -10z
m-10 -70 c0 -5 -5 -10 -11 -10 -5 0 -7 5 -4 10 3 6 8 10 11 10 2 0 4 -4 4 -10z
m-1007 -556 c7 -45 -4 -56 -33 -34 l-24 18 24 25 c14 14 25 25 26 24 1 -1 4
-16 7 -33z m753 -279 c21 -66 40 -115 62 -156 1 -3 -40 -19 -91 -34 -116 -34
-147 -29 -160 29 -13 54 20 195 48 206 23 9 57 45 75 79 l12 24 15 -34 c8 -19
26 -70 39 -114z"/>
<path d="M1180 2024 c-22 -6 -43 -41 -24 -41 7 0 11 4 8 8 -2 5 8 15 23 23 27
15 24 18 -7 10z"/>
<path d="M1140 1959 c0 -5 5 -7 10 -4 6 3 10 8 10 11 0 2 -4 4 -10 4 -5 0 -10
-5 -10 -11z"/>
<path d="M1731 1744 c0 -11 3 -14 6 -6 3 7 2 16 -1 19 -3 4 -6 -2 -5 -13z"/>
</g>
</svg>
